<svg width="452" height="133" viewBox="0 0 452 133" fill="none" xmlns="http://www.w3.org/2000/svg">
<g filter="url(#filter0_d_1141_1322)">
<path d="M20 63.7784C20 75.5665 24.6736 86.8718 32.9926 95.2072C41.3116 103.543 52.5946 108.225 64.3595 108.225H93.4736V58.1954L74.1384 77.5687V88.8698H64.3595C57.7195 88.8698 51.3515 86.2268 46.6563 81.5224C41.9611 76.818 39.3234 70.4374 39.3234 63.7843C39.3234 57.1312 41.9611 50.7507 46.6563 46.0462C51.3515 41.3418 57.7195 38.6989 64.3595 38.6989H74.1677L92.4834 20.3413L93.4736 19.3491H64.3595C52.5977 19.3491 41.3173 24.0295 32.9988 32.3611C24.6803 40.6927 20.0047 51.9934 20 63.7784Z" fill="white"/>
<path d="M117.719 65.2226L115.75 63.25L116.734 62.2637L117.719 61.2775L159.588 19.3256H132.261L98.401 53.2522H98.3951V73.1421H98.4947L98.3951 73.2419L133.304 108.219H160.631L117.719 65.2226Z" fill="white"/>
<path d="M212.575 36.6149H221.247V53.3111C218.916 55.0485 216.298 56.3601 213.513 57.1858C210.648 58.0783 207.665 58.5335 204.665 58.536C200.67 58.5986 196.723 57.6602 193.182 55.8062C189.863 54.0637 187.09 51.4343 185.172 48.2095C183.216 44.8979 182.212 41.1085 182.272 37.2607C182.212 33.411 183.215 29.6196 185.172 26.306C187.103 23.0809 189.893 20.4585 193.228 18.7328C196.812 16.8783 200.797 15.9405 204.83 16.0029C208.179 15.9584 211.504 16.5768 214.614 17.8228C217.457 18.9756 219.987 20.7862 221.997 23.1064L215.903 28.7423C214.563 27.2618 212.925 26.0829 211.097 25.2834C209.269 24.484 207.293 24.0821 205.298 24.1045C202.874 24.0611 200.477 24.6262 198.326 25.7483C196.335 26.8094 194.688 28.4185 193.58 30.3861C192.422 32.4866 191.836 34.8555 191.881 37.2548C191.84 39.635 192.426 41.9839 193.58 44.0648C194.686 46.0315 196.32 47.6483 198.297 48.732C200.41 49.8722 202.781 50.4484 205.181 50.4051C207.75 50.4454 210.288 49.8399 212.564 48.6439L212.575 36.6149Z" fill="white"/>
<path d="M235.455 56.1935C232.899 54.879 230.758 52.8765 229.274 50.4109C227.77 47.873 227 44.9668 227.048 42.0158C227.001 39.065 227.771 36.159 229.274 33.6208C230.76 31.1565 232.9 29.1545 235.455 27.8381C238.219 26.421 241.287 25.7054 244.391 25.754C247.485 25.7015 250.545 26.4175 253.296 27.8381C255.841 29.1586 257.971 31.1603 259.449 33.6208C260.954 36.1579 261.725 39.0647 261.675 42.0158C261.726 44.9671 260.955 47.8741 259.449 50.4109C257.973 52.8727 255.843 54.8748 253.296 56.1935C250.546 57.6165 247.486 58.3326 244.391 58.2776C241.286 58.3292 238.218 57.6134 235.455 56.1935ZM250.162 48.3855C251.666 46.82 252.418 44.6968 252.418 42.0158C252.418 39.3349 251.666 37.2117 250.162 35.6461C249.419 34.8693 248.521 34.2586 247.527 33.8539C246.532 33.4492 245.463 33.2597 244.391 33.2979C243.314 33.2611 242.241 33.4511 241.242 33.8556C240.243 34.26 239.339 34.87 238.59 35.6461C237.067 37.2312 236.305 39.3545 236.305 42.0158C236.305 44.6772 237.067 46.8004 238.59 48.3855C239.339 49.1616 240.243 49.7716 241.242 50.1761C242.241 50.5806 243.314 50.7706 244.391 50.7338C245.463 50.772 246.532 50.5825 247.527 50.1778C248.521 49.7731 249.419 49.1623 250.162 48.3855Z" fill="white"/>
<path d="M267.786 16.0088H276.926V57.8081H267.786V16.0088Z" fill="white"/>
<path d="M317.161 26.2236V57.8079H308.49V54.0507C307.299 55.4112 305.817 56.4848 304.154 57.1915C302.432 57.9257 300.576 58.2954 298.705 58.2776C294.56 58.2776 291.279 57.0839 288.861 54.6964C286.444 52.309 285.233 48.7671 285.229 44.0705V26.2236H294.369V42.7437C294.369 47.8317 296.498 50.3756 300.755 50.3756C301.736 50.4176 302.715 50.248 303.624 49.8783C304.534 49.5087 305.354 48.9475 306.029 48.2328C307.357 46.8043 308.021 44.6811 308.021 41.8631V26.2236H317.161Z" fill="white"/>
<path d="M352.286 27.7795C354.667 29.1086 356.626 31.082 357.941 33.4741C359.35 36.0959 360.056 39.0389 359.991 42.0159C360.058 44.9931 359.351 47.9365 357.941 50.5578C356.628 52.951 354.668 54.9247 352.286 56.2523C349.842 57.6134 347.085 58.3116 344.289 58.2777C339.953 58.2777 336.652 56.9079 334.387 54.1682V57.8081H325.657V16.0088H334.797V29.5701C337.098 27.0261 340.262 25.7541 344.289 25.7541C347.085 25.7203 349.842 26.4184 352.286 27.7795ZM348.478 48.3856C349.982 46.8201 350.734 44.6969 350.734 42.0159C350.734 39.335 349.982 37.2117 348.478 35.6462C346.942 34.1226 344.868 33.2679 342.707 33.2679C340.545 33.2679 338.471 34.1226 336.936 35.6462C335.432 37.2313 334.68 39.3545 334.68 42.0159C334.68 44.6773 335.428 46.8005 336.924 48.3856C338.46 49.9093 340.534 50.764 342.695 50.764C344.856 50.764 346.93 49.9093 348.466 48.3856H348.478Z" fill="white"/>
<path d="M395.615 44.5989H371.768C372.147 46.4814 373.239 48.1436 374.815 49.2367C376.577 50.4222 378.669 51.0181 380.791 50.9392C382.279 50.9673 383.759 50.7185 385.156 50.2054C386.471 49.6769 387.667 48.8882 388.671 47.8864L393.535 53.17C390.566 56.575 386.23 58.2775 380.527 58.2775C377.262 58.3436 374.029 57.6291 371.094 56.1935C368.475 54.9135 366.279 52.9063 364.766 50.4108C363.263 47.873 362.492 44.9667 362.54 42.0157C362.5 39.0789 363.259 36.1868 364.737 33.65C366.175 31.1919 368.264 29.1803 370.772 27.838C373.392 26.4836 376.294 25.7696 379.242 25.7543C382.19 25.739 385.1 26.4228 387.734 27.75C390.204 29.0522 392.249 31.0392 393.622 33.4739C395.102 36.1239 395.85 39.1209 395.79 42.1566C395.79 42.2584 395.732 43.0725 395.615 44.5989ZM374.229 34.4426C372.796 35.6652 371.875 37.3841 371.651 39.2565H387.177C386.939 37.3969 386.02 35.692 384.599 34.4719C383.152 33.2758 381.319 32.6497 379.443 32.7107C377.554 32.6421 375.703 33.2568 374.229 34.4426Z" fill="white"/>
<path d="M432 26.2236L418.7 57.8079H409.267L396.025 26.2236H405.476L414.206 47.7103L423.229 26.2236H432Z" fill="white"/>
<path d="M241.139 91.4058L235.631 97.1591V107.55H226.186V66.4554H235.619V85.6526L253.783 66.4554H264.329L247.338 84.772L265.325 107.55H254.252L241.139 91.4058Z" fill="white"/>
<path d="M299.671 75.9661V107.55H291V103.799C289.806 105.156 288.325 106.229 286.664 106.94C284.941 107.671 283.086 108.041 281.215 108.026C277.075 108.026 273.793 106.832 271.372 104.445C268.95 102.057 267.739 98.5153 267.739 93.8188V75.9719H276.879V92.4685C276.879 97.5565 279.008 100.1 283.266 100.1C284.246 100.141 285.224 99.9706 286.134 99.601C287.043 99.2314 287.863 98.6711 288.539 97.9576C289.867 96.533 290.531 94.4098 290.531 91.5879V75.9719L299.671 75.9661Z" fill="white"/>
<path d="M308.167 66.4554H317.308V107.55H308.167V66.4554Z" fill="white"/>
<path d="M339.338 95.1631L334.943 99.5074V107.55H325.792V66.4554H334.932V88.6466L348.291 75.9659H359.189L346.064 89.3511L360.36 107.55H349.287L339.338 95.1631Z" fill="white"/>
<path d="M369.19 105.936C366.634 104.621 364.493 102.619 363.009 100.153C361.55 97.5967 360.783 94.7029 360.783 91.7581C360.783 88.8133 361.55 85.9195 363.009 83.363C364.493 80.8974 366.634 78.8949 369.19 77.5804C371.965 76.2092 375.017 75.4961 378.111 75.4961C381.204 75.4961 384.257 76.2092 387.031 77.5804C389.576 78.9009 391.706 80.9026 393.183 83.363C394.642 85.9195 395.41 88.8133 395.41 91.7581C395.41 94.7029 394.642 97.5967 393.183 100.153C391.706 102.614 389.576 104.615 387.031 105.936C384.257 107.307 381.204 108.02 378.111 108.02C375.017 108.02 371.965 107.307 369.19 105.936ZM383.897 98.1278C385.404 96.5427 386.156 94.4195 386.152 91.7581C386.149 89.0967 385.397 86.9735 383.897 85.3884C383.154 84.6116 382.256 84.0008 381.262 83.5961C380.267 83.1914 379.198 83.002 378.125 83.0401C377.048 83.0033 375.976 83.1933 374.977 83.5978C373.977 84.0023 373.074 84.6123 372.325 85.3884C370.802 86.9735 370.04 89.0967 370.04 91.7581C370.04 94.4195 370.802 96.5427 372.325 98.1278C373.074 98.9039 373.977 99.5139 374.977 99.9184C375.976 100.323 377.048 100.513 378.125 100.476C379.198 100.514 380.267 100.325 381.262 99.92C382.256 99.5154 383.154 98.9046 383.897 98.1278Z" fill="white"/>
<path d="M431.912 75.9661L418.612 107.55H409.179L395.937 75.9661H405.37L414.1 97.4528L423.123 75.9661H431.912Z" fill="white"/>
<path d="M212.201 107.668L207.818 103.593C205.085 105.641 201.883 106.969 198.505 107.457C195.128 107.945 191.682 107.578 188.483 106.388C186.533 105.661 184.813 104.425 183.502 102.807C182.329 101.343 181.694 99.5185 181.704 97.6406C181.665 95.491 182.334 93.3885 183.608 91.6583C184.881 89.9324 186.924 88.2866 189.737 86.7211C188.578 85.5857 187.609 84.2716 186.866 82.8288C186.285 81.6324 185.983 80.3198 185.981 78.9894C185.951 77.3155 186.443 75.6739 187.387 74.2929C188.39 72.88 189.774 71.7825 191.377 71.1286C193.27 70.3488 195.302 69.9671 197.348 70.0073C200.512 70.0073 203.051 70.7646 204.965 72.2792C205.895 73.0012 206.64 73.9348 207.138 75.0026C207.636 76.0705 207.873 77.242 207.83 78.42C207.852 80.2357 207.255 82.0045 206.136 83.4335C205.007 84.8934 203.191 86.3043 200.687 87.6663L207.361 93.8833C208.209 92.0706 208.823 90.157 209.189 88.1888L215.704 90.2259C215.119 93.1751 213.984 95.9873 212.359 98.5153L216.63 102.484L212.201 107.668ZM203.025 99.1552L194.236 90.901C192.899 91.5891 191.706 92.5277 190.721 93.6661C190.034 94.545 189.666 95.632 189.678 96.7482C189.669 97.4013 189.826 98.046 190.133 98.622C190.441 99.1979 190.889 99.6864 191.436 100.042C192.851 100.94 194.509 101.377 196.182 101.292C198.631 101.325 201.028 100.576 203.025 99.1552ZM194.447 76.4826C194.101 76.7772 193.826 77.1459 193.641 77.5615C193.457 77.9772 193.368 78.429 193.381 78.8837C193.384 79.6114 193.587 80.3243 193.967 80.9444C194.609 81.8938 195.363 82.763 196.211 83.5333C197.569 82.886 198.819 82.0303 199.914 80.9972C200.562 80.355 200.936 79.4857 200.957 78.5726C200.971 78.1601 200.895 77.7494 200.733 77.3699C200.571 76.9903 200.327 76.6513 200.019 76.377C199.268 75.7758 198.319 75.4766 197.359 75.5374C196.305 75.4761 195.266 75.8134 194.447 76.4826Z" fill="white"/>
</g>
<defs>
<filter id="filter0_d_1141_1322" x="0" y="0" width="452" height="132.225" filterUnits="userSpaceOnUse" color-interpolation-filters="sRGB">
<feFlood flood-opacity="0" result="BackgroundImageFix"/>
<feColorMatrix in="SourceAlpha" type="matrix" values="0 0 0 0 0 0 0 0 0 0 0 0 0 0 0 0 0 0 127 0" result="hardAlpha"/>
<feOffset dy="4"/>
<feGaussianBlur stdDeviation="10"/>
<feColorMatrix type="matrix" values="0 0 0 0 0 0 0 0 0 0 0 0 0 0 0 0 0 0 0.5 0"/>
<feBlend mode="normal" in2="BackgroundImageFix" result="effect1_dropShadow_1141_1322"/>
<feBlend mode="normal" in="SourceGraphic" in2="effect1_dropShadow_1141_1322" result="shape"/>
</filter>
</defs>
</svg>
