<svg width="162" height="50" viewBox="0 0 162 50" fill="none" xmlns="http://www.w3.org/2000/svg">
<rect x="0.000244141" width="162" height="50" rx="4" fill="url(#paint0_linear_1141_1481)"/>
<path d="M10.0002 25.4673C10.0002 29.5302 11.611 33.4267 14.4783 36.2995C17.3455 39.1724 21.2343 40.7864 25.2892 40.7864H35.3236V23.5431L28.6596 30.2203V34.1153H25.2892C23.0007 34.1153 20.8059 33.2044 19.1876 31.5829C17.5694 29.9615 16.6603 27.7624 16.6603 25.4693C16.6603 23.1763 17.5694 20.9772 19.1876 19.3557C20.8059 17.7343 23.0007 16.8234 25.2892 16.8234H28.6697L34.9824 10.4962L35.3236 10.1543H25.2892C21.2354 10.1543 17.3475 11.7674 14.4804 14.639C11.6134 17.5106 10.0019 21.4055 10.0002 25.4673Z" fill="white"/>
<path d="M43.6798 25.9651L43.0013 25.2852L43.3405 24.9453L43.6798 24.6054L58.1105 10.1462H48.692L37.0218 21.8394H37.0198V28.6947H37.0541L37.0198 28.7291L49.0514 40.7844H58.4699L43.6798 25.9651Z" fill="white"/>
<path d="M76.3733 16.1051H79.362V21.8597C78.5588 22.4584 77.6564 22.9105 76.6964 23.1951C75.709 23.5027 74.681 23.6596 73.647 23.6605C72.2701 23.682 70.9096 23.3586 69.689 22.7196C68.5451 22.119 67.5896 21.2128 66.9285 20.1013C66.2541 18.96 65.9082 17.6539 65.9289 16.3277C65.9081 15.0009 66.2541 13.6941 66.9285 12.5521C67.5941 11.4405 68.5556 10.5367 69.7052 9.94188C70.9402 9.30272 72.3137 8.9795 73.7036 9.00101C74.858 8.98565 76.004 9.19881 77.076 9.62826C78.0557 10.0256 78.9276 10.6496 79.6205 11.4493L77.5203 13.3918C77.0585 12.8815 76.4939 12.4752 75.8639 12.1996C75.2338 11.9241 74.5526 11.7856 73.8651 11.7933C73.0295 11.7783 72.2034 11.9731 71.462 12.3598C70.7759 12.7256 70.2084 13.2802 69.8263 13.9583C69.4272 14.6823 69.2252 15.4987 69.2407 16.3257C69.2266 17.146 69.4286 17.9556 69.8263 18.6728C70.2076 19.3507 70.7707 19.9079 71.4519 20.2814C72.1804 20.6744 72.9975 20.873 73.8248 20.8581C74.7102 20.8719 75.585 20.6633 76.3692 20.2511L76.3733 16.1051Z" fill="white"/>
<path d="M84.2589 22.853C83.3777 22.4 82.64 21.7098 82.1284 20.86C81.6102 19.9853 81.3446 18.9836 81.3611 17.9666C81.3449 16.9495 81.6105 15.9479 82.1284 15.0731C82.6406 14.2238 83.3782 13.5338 84.2589 13.0801C85.2113 12.5917 86.2688 12.345 87.3385 12.3618C88.4052 12.3437 89.4597 12.5904 90.408 13.0801C91.2852 13.5352 92.0191 14.2251 92.5284 15.0731C93.0472 15.9476 93.3129 16.9494 93.2958 17.9666C93.3133 18.9837 93.0475 19.9857 92.5284 20.86C92.0197 21.7085 91.2856 22.3985 90.408 22.853C89.46 23.3435 88.4053 23.5903 87.3385 23.5713C86.2687 23.5891 85.211 23.3424 84.2589 22.853ZM89.3277 20.1619C89.846 19.6224 90.1051 18.8906 90.1051 17.9666C90.1051 17.0425 89.846 16.3108 89.3277 15.7712C89.0717 15.5034 88.7622 15.2929 88.4194 15.1535C88.0766 15.014 87.7083 14.9487 87.3385 14.9618C86.9673 14.9491 86.5976 15.0146 86.2532 15.154C85.9089 15.2934 85.5975 15.5037 85.3393 15.7712C84.8143 16.3175 84.5517 17.0493 84.5517 17.9666C84.5517 18.8838 84.8143 19.6156 85.3393 20.1619C85.5975 20.4294 85.9089 20.6397 86.2532 20.7791C86.5976 20.9185 86.9673 20.984 87.3385 20.9713C87.7083 20.9844 88.0766 20.9191 88.4194 20.7797C88.7622 20.6402 89.0717 20.4297 89.3277 20.1619Z" fill="white"/>
<path d="M95.4021 9.00305H98.5524V23.4096H95.4021V9.00305Z" fill="white"/>
<path d="M112.42 12.5237V23.4095H109.431V22.1146C109.02 22.5835 108.51 22.9535 107.937 23.1971C107.343 23.4501 106.704 23.5776 106.058 23.5714C104.63 23.5714 103.499 23.16 102.666 22.3371C101.833 21.5143 101.415 20.2935 101.414 18.6748V12.5237H104.564V18.2175C104.564 19.9711 105.298 20.8479 106.765 20.8479C107.103 20.8624 107.441 20.8039 107.754 20.6765C108.068 20.5491 108.35 20.3557 108.583 20.1094C109.04 19.617 109.269 18.8852 109.269 17.914V12.5237H112.42Z" fill="white"/>
<path d="M124.526 13.0599C125.347 13.5181 126.022 14.1982 126.475 15.0226C126.96 15.9263 127.204 16.9406 127.182 17.9667C127.205 18.9928 126.961 20.0073 126.475 20.9107C126.022 21.7355 125.347 22.4158 124.526 22.8734C123.684 23.3425 122.733 23.5831 121.77 23.5715C120.275 23.5715 119.138 23.0993 118.357 22.1551V23.4096H115.348V9.00305H118.498V13.6771C119.291 12.8003 120.382 12.3619 121.77 12.3619C122.733 12.3502 123.684 12.5908 124.526 13.0599ZM123.213 20.162C123.732 19.6225 123.991 18.8907 123.991 17.9667C123.991 17.0427 123.732 16.3109 123.213 15.7713C122.684 15.2461 121.969 14.9516 121.224 14.9516C120.479 14.9516 119.765 15.2461 119.235 15.7713C118.717 16.3176 118.458 17.0494 118.458 17.9667C118.458 18.8839 118.716 19.6157 119.231 20.162C119.761 20.6872 120.475 20.9818 121.22 20.9818C121.965 20.9818 122.68 20.6872 123.209 20.162H123.213Z" fill="white"/>
<path d="M139.459 18.8569H131.24C131.371 19.5057 131.747 20.0786 132.29 20.4554C132.898 20.8639 133.619 21.0693 134.35 21.0421C134.863 21.0518 135.373 20.9661 135.855 20.7892C136.308 20.6071 136.72 20.3353 137.066 19.99L138.743 21.811C137.719 22.9846 136.225 23.5714 134.259 23.5714C133.134 23.5941 132.02 23.3479 131.008 22.8531C130.106 22.4119 129.348 21.7201 128.827 20.86C128.309 19.9853 128.043 18.9837 128.06 17.9666C128.046 16.9544 128.308 15.9576 128.817 15.0833C129.313 14.236 130.033 13.5427 130.897 13.0801C131.8 12.6133 132.8 12.3672 133.817 12.3619C134.833 12.3566 135.836 12.5923 136.743 13.0497C137.595 13.4986 138.299 14.1834 138.773 15.0225C139.283 15.9359 139.541 16.9688 139.52 18.0151C139.52 18.0502 139.5 18.3308 139.459 18.8569ZM132.089 15.3564C131.595 15.7778 131.277 16.3702 131.2 17.0156H136.551C136.469 16.3746 136.153 15.7871 135.663 15.3665C135.164 14.9543 134.532 14.7385 133.886 14.7595C133.235 14.7359 132.597 14.9477 132.089 15.3564Z" fill="white"/>
<path d="M152 12.5237L147.416 23.4095H144.165L139.601 12.5237H142.858L145.867 19.9293L148.977 12.5237H152Z" fill="white"/>
<path d="M86.2177 34.9894L84.3195 36.9723V40.5537H81.0642V26.39H84.3155V33.0065L90.5756 26.39H94.2106L88.3543 32.703L94.5539 40.5537H90.7372L86.2177 34.9894Z" fill="white"/>
<path d="M106.392 29.668V40.5538H103.403V39.2609C102.992 39.7287 102.481 40.0986 101.909 40.3434C101.315 40.5955 100.676 40.7229 100.031 40.7177C98.6036 40.7177 97.4727 40.3063 96.638 39.4834C95.8033 38.6606 95.386 37.4398 95.386 35.8211V29.67H98.5363V35.3557C98.5363 37.1093 99.27 37.9861 100.737 37.9861C101.075 38.0001 101.412 37.9414 101.726 37.814C102.039 37.6866 102.322 37.4935 102.555 37.2476C103.013 36.7566 103.241 36.0248 103.241 35.0522V29.67L106.392 29.668Z" fill="white"/>
<path d="M109.32 26.39H112.47V40.5537H109.32V26.39Z" fill="white"/>
<path d="M120.063 36.2844L118.549 37.7817V40.5537H115.394V26.39H118.545V34.0384L123.149 29.6679H126.905L122.381 34.2812L127.309 40.5537H123.492L120.063 36.2844Z" fill="white"/>
<path d="M130.352 39.9973C129.471 39.5443 128.733 38.8541 128.222 38.0043C127.719 37.1232 127.454 36.1258 127.454 35.1108C127.454 34.0959 127.719 33.0985 128.222 32.2174C128.733 31.3676 129.471 30.6774 130.352 30.2244C131.308 29.7518 132.36 29.506 133.427 29.506C134.493 29.506 135.545 29.7518 136.501 30.2244C137.378 30.6795 138.112 31.3694 138.622 32.2174C139.124 33.0985 139.389 34.0959 139.389 35.1108C139.389 36.1258 139.124 37.1232 138.622 38.0043C138.112 38.8523 137.378 39.5422 136.501 39.9973C135.545 40.4699 134.493 40.7157 133.427 40.7157C132.36 40.7157 131.308 40.4699 130.352 39.9973ZM135.421 37.3062C135.94 36.7599 136.2 36.0281 136.198 35.1108C136.197 34.1936 135.938 33.4618 135.421 32.9155C135.165 32.6477 134.855 32.4372 134.513 32.2977C134.17 32.1583 133.801 32.093 133.432 32.1061C133.06 32.0934 132.691 32.1589 132.346 32.2983C132.002 32.4377 131.691 32.648 131.432 32.9155C130.907 33.4618 130.645 34.1936 130.645 35.1108C130.645 36.0281 130.907 36.7599 131.432 37.3062C131.691 37.5737 132.002 37.784 132.346 37.9234C132.691 38.0628 133.06 38.1283 133.432 38.1156C133.801 38.1287 134.17 38.0634 134.513 37.9239C134.855 37.7845 135.165 37.574 135.421 37.3062Z" fill="white"/>
<path d="M151.97 29.668L147.386 40.5538H144.134L139.571 29.668H142.822L145.831 37.0736L148.941 29.668H151.97Z" fill="white"/>
<path d="M76.244 40.5942L74.7335 39.19C73.7914 39.8955 72.6879 40.3533 71.5238 40.5216C70.3597 40.6898 69.1721 40.5631 68.0694 40.1531C67.3975 39.9027 66.8048 39.4765 66.3529 38.9188C65.9484 38.4142 65.7294 37.7855 65.733 37.1382C65.7196 36.3974 65.9503 35.6727 66.3893 35.0764C66.8282 34.4815 67.5323 33.9143 68.5016 33.3747C68.1024 32.9834 67.7683 32.5305 67.5121 32.0332C67.312 31.6209 67.2077 31.1685 67.2071 30.7099C67.1969 30.133 67.3663 29.5672 67.6918 29.0912C68.0376 28.6043 68.5146 28.226 69.067 28.0006C69.7193 27.7319 70.4197 27.6003 71.1248 27.6141C72.2153 27.6141 73.0904 27.8752 73.75 28.3972C74.0706 28.646 74.3273 28.9678 74.4991 29.3359C74.6708 29.7039 74.7525 30.1077 74.7375 30.5137C74.7452 31.1395 74.5393 31.7491 74.1539 32.2416C73.7648 32.7448 73.1388 33.2311 72.2759 33.7005L74.576 35.8433C74.8683 35.2185 75.08 34.559 75.206 33.8806L77.4516 34.5827C77.2498 35.5992 76.8586 36.5684 76.2985 37.4397L77.7707 38.8075L76.244 40.5942ZM73.0816 37.6603L70.0525 34.8154C69.5915 35.0525 69.1802 35.3761 68.8408 35.7684C68.6041 36.0713 68.4773 36.446 68.4814 36.8307C68.4784 37.0558 68.5323 37.278 68.6383 37.4765C68.7442 37.675 68.8987 37.8434 69.0872 37.9658C69.5749 38.2754 70.1463 38.426 70.7229 38.3968C71.5672 38.408 72.3932 38.1501 73.0816 37.6603ZM70.1252 29.8459C70.0059 29.9475 69.911 30.0746 69.8474 30.2178C69.7838 30.3611 69.7531 30.5168 69.7577 30.6735C69.7587 30.9243 69.8286 31.17 69.9596 31.3837C70.181 31.711 70.4407 32.0105 70.733 32.276C71.2012 32.0529 71.6318 31.758 72.0093 31.4019C72.2327 31.1806 72.3616 30.881 72.3688 30.5663C72.3738 30.4241 72.3474 30.2825 72.2916 30.1517C72.2357 30.0209 72.1517 29.9041 72.0457 29.8095C71.7865 29.6023 71.4597 29.4992 71.1288 29.5202C70.7654 29.499 70.4072 29.6153 70.1252 29.8459Z" fill="white"/>
<defs>
<linearGradient id="paint0_linear_1141_1481" x1="190.411" y1="-11.5" x2="-22.1314" y2="85.8938" gradientUnits="userSpaceOnUse">
<stop stop-color="#153EF5"/>
<stop offset="1" stop-color="#7C2BFD"/>
</linearGradient>
</defs>
</svg>
